# xmcd CD database file
#
# Track frame offsets:
#	182
#	18015
#	42770
#	69157
#	97492
#	123082
#	144680
#	166107
#	184440
#	203670
#	221800
#
# Disc length: 3032 seconds
#
# Revision: 69
# Processed by: cddbd v1.5.2PL0 Copyright (c) Steve Scherf et al.
# Submitted via: CDex 2.21
#
DISCID=9a0bd60b
DTITLE=Seal - Seal
DYEAR=1994
DGENRE=Rock
TTITLE0=Bring It On
TTITLE1=Prayer For The Dying
TTITLE2=Dreaming In Metaphors
TTITLE3=Don't Cry
TTITLE4=Fast Changes
TTITLE5=Kiss From A Rose
TTITLE6=People Asking Why
TTITLE7=Newborn Friend
TTITLE8=If I Could
TTITLE9=I'm Alive
TTITLE10=Bring It On (Reprise)
EXTD=YEAR: 1994
EXTT0=
EXTT1=
EXTT2=
EXTT3=
EXTT4=
EXTT5=
EXTT6=
EXTT7=
EXTT8=
EXTT9=
EXTT10=
PLAYORDER=
